<svg width="22" height="22" viewBox="0 0 22 22" fill="none" xmlns="http://www.w3.org/2000/svg">
<g clip-path="url(#clip0_1_17)">
<path d="M10.8482 0.0274811L0.632568 3.62264L2.24692 17.0068L10.859 21.7402L19.5157 16.9427L21.1294 3.55897L10.8482 0.0274811Z" fill="#B3B3B3"/>
<path d="M20.1104 4.33249L10.8244 1.16585V20.6093L18.6065 16.3023L20.1104 4.33249Z" fill="#A6120D"/>
<path d="M1.77893 4.38955L3.1623 16.3596L10.8242 20.6093V1.16553L1.77901 4.38947L1.77893 4.38955Z" fill="#DD1B16"/>
<path d="M13.3805 11.5165L10.8244 12.7119H8.13026L6.86383 15.8796L4.50827 15.9231L10.8244 1.87192L13.3805 11.5166V11.5165ZM13.1335 10.9147L10.8414 6.37712L8.96125 10.8366H10.8243L13.1335 10.9148V10.9147Z" fill="#F2F2F2"/>
<path d="M10.8243 1.87184L10.8412 6.37713L12.9745 10.8401H10.8291L10.8243 12.709L13.7909 12.7118L15.1774 15.9236L17.4314 15.9653L10.8243 1.87184Z" fill="#B3B3B3"/>
</g>
<defs>
<clipPath id="clip0_1_17">
<rect width="21.76" height="21.76" fill="white"/>
</clipPath>
</defs>
</svg>
