<svg width="22" height="22" viewBox="0 0 22 22" fill="none" xmlns="http://www.w3.org/2000/svg">
<g clip-path="url(#clip0_1_9)">
<path d="M17.2888 0.29808H4.47125C2.16648 0.29808 0.298096 2.16646 0.298096 4.47123V17.2888C0.298096 19.5935 2.16648 21.4619 4.47125 21.4619H17.2888C19.5935 21.4619 21.4619 19.5935 21.4619 17.2888V4.47123C21.4619 2.16646 19.5935 0.29808 17.2888 0.29808Z" fill="white" stroke="#78011E"/>
<path d="M10.9724 3.2789L3.94302 5.78562L5.01517 15.0801L10.9724 18.3796L16.9296 15.0801L18.0018 5.78562L10.9724 3.2789Z" fill="#DD0031"/>
<path d="M10.9724 3.2789V4.95508V4.94753V12.596V18.3796L16.9296 15.0801L18.0018 5.78562L10.9724 3.2789Z" fill="#C3002F"/>
<path d="M10.9724 4.94753L6.57809 14.8007H8.21652L9.09991 12.596H12.8298L13.7132 14.8007H15.3516L10.9724 4.94753ZM12.256 11.237H9.68884L10.9724 8.14888L12.256 11.237Z" fill="white"/>
</g>
<defs>
<clipPath id="clip0_1_9">
<rect width="21.76" height="21.76" fill="white"/>
</clipPath>
</defs>
</svg>
