<svg width="22" height="22" viewBox="0 0 22 22" fill="none" xmlns="http://www.w3.org/2000/svg">
<g clip-path="url(#clip0_2_23)">
<path d="M10.8763 12.5075C11.9489 12.5075 12.8184 11.638 12.8184 10.5654C12.8184 9.49279 11.9489 8.62329 10.8763 8.62329C9.80376 8.62329 8.93427 9.49279 8.93427 10.5654C8.93427 11.638 9.80376 12.5075 10.8763 12.5075Z" fill="#00D8FF"/>
<path d="M10.8762 7.0803C13.3858 7.0803 15.7699 7.43413 17.5823 8.05808C19.5952 8.75105 20.8231 9.77558 20.8231 10.565C20.8231 11.4059 19.497 12.4975 17.3439 13.2109C15.6298 13.7789 13.3364 14.0884 10.8762 14.0884C8.29165 14.0884 5.97237 13.7849 4.27814 13.2058C3.21746 12.8432 2.34153 12.3721 1.74114 11.8579C1.20163 11.3959 0.929253 10.9372 0.929253 10.565C0.929253 9.77293 2.11012 8.76262 4.07963 8.07596C5.89284 7.44383 8.33522 7.0803 10.8762 7.0803ZM10.8762 6.15105C8.2365 6.15105 5.69183 6.52981 3.77372 7.1985C1.47074 8.00143 0 9.25974 0 10.565C0 11.9131 1.57887 13.2652 3.97758 14.0851C5.78061 14.7014 8.1974 15.0177 10.8762 15.0177C13.4291 15.0177 15.819 14.6951 17.6362 14.093C20.1299 13.2668 21.7523 11.9311 21.7523 10.565C21.7523 9.25502 20.2341 7.98822 17.8848 7.17944C15.969 6.5199 13.4837 6.15105 10.8762 6.15105ZM7.8407 8.83383C9.09444 6.65982 10.592 4.77136 12.0379 3.51298C13.6438 2.11544 15.1447 1.56361 15.8286 1.95796C16.557 2.37803 16.8403 4.07214 16.3826 6.29367C16.0182 8.06231 15.1407 10.2037 13.9116 12.3349C12.6205 14.5738 11.1989 16.4312 9.85083 17.6096C9.00689 18.3473 8.16116 18.8708 7.41582 19.134C6.74606 19.3705 6.21261 19.3773 5.89017 19.1914C5.20404 18.7957 4.91878 17.268 5.30787 15.2189C5.66605 13.3324 6.57127 11.0351 7.8407 8.83383ZM7.03571 8.3696C5.71696 10.6564 4.77384 13.0499 4.39492 15.0455C3.93996 17.4416 4.29525 19.3443 5.42594 19.9964C6.5938 20.6698 8.55385 19.9776 10.4624 18.3093C11.8971 17.0552 13.3784 15.1197 14.7166 12.7991C15.992 10.5875 16.9065 8.3561 17.2927 6.48118C17.8228 3.90824 17.4762 1.83542 16.2928 1.15297C15.158 0.498569 13.3022 1.18088 11.4279 2.812C9.89947 4.14213 8.33834 6.11082 7.03571 8.3696ZM7.8436 12.3399C6.58624 10.168 5.69802 7.92748 5.32995 6.0463C4.92116 3.95706 5.19267 2.3811 5.87586 1.98561C6.6036 1.5643 8.21278 2.16498 9.90883 3.67096C11.2592 4.86989 12.6761 6.69957 13.9087 8.82877C15.2036 11.0655 16.1029 13.2247 16.4506 14.9812C16.6682 16.0808 16.6993 17.0749 16.5552 17.8521C16.4256 18.5505 16.1651 19.016 15.8429 19.2025C15.1574 19.5993 13.6915 19.0836 12.1105 17.7231C10.655 16.4706 9.11673 14.539 7.8436 12.3399ZM7.03939 12.8055C8.36198 15.09 9.96467 17.1025 11.5043 18.4274C13.353 20.0183 15.1789 20.6607 16.3085 20.0067C17.4752 19.3313 17.8544 17.2875 17.3621 14.8008C16.9921 12.9315 16.055 10.6815 14.7129 8.3632C13.4338 6.15372 11.9573 4.24707 10.5258 2.97608C8.56148 1.2319 6.59257 0.496937 5.41029 1.1814C4.27659 1.83769 3.94088 3.78631 4.41799 6.22474C4.80704 8.21318 5.733 10.5489 7.03939 12.8055Z" fill="#00D8FF"/>
</g>
<defs>
<clipPath id="clip0_2_23">
<rect width="21.76" height="21.76" fill="white"/>
</clipPath>
</defs>
</svg>
